<?xml version="1.0" standalone="no"?>
<!DOCTYPE svg PUBLIC "-//W3C//DTD SVG 20010904//EN"
 "http://www.w3.org/TR/2001/REC-SVG-20010904/DTD/svg10.dtd">
<svg version="1.0" xmlns="http://www.w3.org/2000/svg"
 width="700.000000pt" height="700.000000pt" viewBox="0 0 700.000000 700.000000"
 preserveAspectRatio="xMidYMid meet">
<metadata>
Created by potrace 1.14, written by Peter Selinger 2001-2017
</metadata>
<g transform="translate(0.000000,700.000000) scale(0.100000,-0.100000)"
fill="#000000" stroke="none">
<path d="M4120 6912 c-53 -7 -98 -23 -118 -40 -21 -19 -25 -37 -37 -187 -2
-33 -12 -134 -20 -225 -8 -91 -17 -187 -20 -215 -2 -27 -7 -84 -11 -125 -4
-41 -12 -133 -18 -203 l-11 -128 -430 -4 c-236 -2 -450 -6 -475 -9 -25 -2 -79
-7 -120 -11 -128 -10 -184 -16 -210 -20 -14 -3 -47 -7 -75 -10 -27 -3 -61 -8
-75 -10 -14 -3 -47 -7 -75 -11 -70 -8 -334 -61 -430 -85 -44 -12 -88 -22 -97
-24 -30 -6 -287 -94 -326 -111 -191 -86 -302 -155 -376 -234 -81 -86 -94 -128
-102 -325 -7 -190 2 -266 42 -327 17 -27 33 -39 58 -44 37 -6 38 -9 50 -99 3
-22 8 -56 10 -75 3 -19 8 -62 11 -95 4 -33 8 -67 10 -75 2 -8 7 -42 10 -75 4
-33 8 -67 10 -75 2 -8 7 -40 10 -70 3 -30 8 -71 11 -91 2 -20 7 -54 9 -75 3
-22 9 -70 15 -109 10 -73 16 -117 25 -200 4 -27 8 -61 10 -75 3 -14 7 -47 10
-75 3 -27 10 -77 15 -110 5 -33 12 -85 15 -115 3 -30 13 -100 20 -155 8 -55
24 -174 36 -265 11 -91 22 -178 24 -195 3 -16 7 -50 10 -75 5 -43 12 -95 20
-150 2 -14 7 -50 10 -80 3 -30 8 -66 10 -80 3 -14 7 -44 10 -67 9 -79 16 -128
20 -153 2 -14 7 -50 10 -80 3 -30 8 -66 10 -80 2 -14 7 -50 10 -80 4 -30 9
-62 10 -70 2 -8 6 -42 9 -75 4 -33 11 -87 16 -120 5 -33 11 -85 15 -115 3 -30
8 -66 11 -80 2 -14 6 -41 8 -60 2 -19 6 -53 10 -75 3 -22 15 -114 26 -205 12
-91 23 -176 25 -189 2 -14 7 -54 10 -90 13 -131 81 -223 233 -313 176 -104
489 -201 787 -243 28 -4 59 -9 70 -11 11 -2 45 -7 75 -10 30 -3 71 -7 90 -9
223 -27 770 -27 1005 0 22 3 63 7 92 9 182 17 530 95 702 158 95 35 223 99
281 141 113 82 163 163 175 279 3 37 8 77 10 90 2 13 6 46 10 73 3 28 8 64 10
80 3 17 12 86 21 155 8 69 18 139 20 155 2 17 6 50 9 75 3 25 8 56 10 70 2 14
6 48 10 75 3 28 7 61 10 74 2 13 7 49 10 80 3 31 7 67 10 81 2 14 7 43 9 65 3
22 8 58 10 80 3 22 8 60 11 85 5 43 13 97 20 150 2 14 7 52 11 85 3 33 7 67 9
75 1 8 6 40 10 70 7 58 10 81 19 145 3 22 8 58 10 80 3 22 8 58 10 80 3 22 8
58 10 80 3 22 10 72 15 110 9 65 16 121 26 205 2 19 11 87 20 150 9 63 18 133
21 155 3 22 7 51 9 65 2 14 6 48 10 75 3 28 8 66 10 85 3 19 14 107 25 195 12
88 23 171 25 185 2 14 7 49 10 79 4 30 8 61 10 70 1 9 6 45 10 81 4 36 9 72
10 81 2 9 6 40 10 70 3 30 8 65 10 79 3 14 7 45 9 70 3 25 7 59 10 75 2 17 7
55 11 85 12 109 10 106 62 105 56 0 78 24 92 100 9 49 7 225 -4 275 -3 14 -7
36 -10 50 -30 161 -131 265 -373 385 -139 69 -402 160 -547 190 -11 2 -74 15
-140 29 -112 23 -183 37 -280 52 -22 3 -47 8 -55 9 -8 2 -21 4 -29 4 -13 1
-13 2 5 199 10 98 10 98 19 207 4 55 9 107 10 116 2 8 6 55 10 105 4 49 15
169 24 267 l17 179 -23 24 c-27 29 -64 46 -151 69 -60 15 -217 25 -272 17z"/>
</g>
</svg>
